<svg width="1200" height="580" viewBox="0 0 1200 580" fill="none" xmlns="http://www.w3.org/2000/svg">
<g clip-path="url(#clip0_0_3)">
<path d="M734.567 34.372C705.875 96.096 711.301 134.794 750.842 150.466C810.155 173.974 951.189 183.377 1010.14 234.372C1069.09 285.366 1248.84 245.944 1279.58 158.422C1310.32 70.9 1365.67 -64 1073.81 -64C879.232 -64 766.154 -31.21 734.568 34.372H734.567Z" fill="#FFFA72" fill-opacity="0.47"/>
<path d="M256.788 156.242C176.45 329.069 191.643 437.423 302.358 481.305C468.434 547.127 863.329 573.456 1028.39 716.242C1193.45 859.025 1696.75 748.643 1782.82 503.582C1868.9 258.52 2023.87 -119.2 1206.66 -119.2C661.85 -119.2 345.231 -27.388 256.79 156.242H256.788Z" fill="#C7E1F3" fill-opacity="0.55"/>
<path d="M296.603 146.086C220.569 309.654 234.948 412.204 339.731 453.735C496.911 516.031 870.651 540.949 1026.87 676.086C1183.09 811.22 1659.42 706.752 1740.88 474.818C1822.35 242.885 1969.02 -114.6 1195.59 -114.6C679.965 -114.6 380.308 -27.7065 296.605 146.086H296.603Z" fill="#B8CFE6" fill-opacity="0.57"/>
<path d="M336.418 135.93C264.688 290.24 278.252 386.985 377.105 426.165C525.387 484.935 877.972 508.443 1025.35 635.93C1172.73 763.415 1622.09 664.86 1698.95 446.055C1775.8 227.25 1914.17 -110 1184.52 -110C698.08 -110 415.385 -28.025 336.42 135.93H336.418Z" fill="#A9BEDA" fill-opacity="0.55"/>
<path d="M376.233 125.774C308.806 270.826 321.557 361.766 414.479 398.595C553.864 453.839 885.294 475.936 1023.83 595.774C1162.36 715.61 1584.77 622.968 1657.01 417.292C1729.25 211.615 1859.32 -105.4 1173.45 -105.4C716.195 -105.4 450.462 -28.3435 376.235 125.774H376.233Z" fill="#9AADCE" fill-opacity="0.56"/>
<path d="M416.047 115.618C352.925 251.411 364.862 336.547 451.852 371.025C582.341 422.743 892.616 443.429 1022.31 555.618C1152 667.805 1547.44 581.077 1615.07 388.528C1682.7 195.98 1804.47 -100.8 1162.38 -100.8C734.31 -100.8 485.539 -28.662 416.05 115.618H416.047Z" fill="#8B9BC1" fill-opacity="0.5"/>
<path d="M455.862 105.463C397.044 231.997 408.167 311.328 489.226 343.455C610.818 391.647 899.937 410.923 1020.79 515.463C1141.64 620 1510.12 539.185 1573.14 359.765C1636.16 180.345 1749.62 -96.2 1151.31 -96.2C752.426 -96.2 520.616 -28.9805 455.864 105.463H455.862Z" fill="#7D8AB5" fill-opacity="0.55"/>
<path d="M495.677 95.3068C441.163 212.582 451.472 286.109 526.6 315.885C639.295 360.551 907.259 378.416 1019.27 475.307C1131.27 572.195 1472.79 497.294 1531.2 331.002C1589.61 164.71 1694.77 -91.6 1140.24 -91.6C770.541 -91.6 555.693 -29.299 495.679 95.3068H495.677Z" fill="#6E79A9" fill-opacity="0.51"/>
<path d="M535.492 85.151C485.281 193.168 494.777 260.889 563.973 288.315C667.771 329.454 914.581 345.91 1017.75 435.151C1120.91 524.391 1435.47 455.402 1489.26 302.238C1543.06 149.075 1639.92 -87 1129.16 -87C788.656 -87 590.769 -29.6175 535.494 85.151H535.492Z" fill="#5F679C" fill-opacity="0.47"/>
<path d="M575.307 74.9952C529.4 173.754 538.082 235.67 601.347 260.746C696.248 298.358 921.902 313.403 1016.23 394.995C1110.55 476.586 1398.14 413.51 1447.33 273.475C1496.51 133.44 1585.07 -82.4 1118.09 -82.4C806.771 -82.4 625.846 -29.936 575.309 74.9952H575.307Z" fill="#505690" fill-opacity="0.59"/>
<path d="M615.122 64.8394C573.519 154.339 581.386 210.451 638.721 233.176C724.725 267.262 929.224 280.897 1014.7 354.839C1100.18 428.781 1360.82 371.619 1405.39 244.712C1449.96 117.805 1530.22 -77.8 1107.02 -77.8C824.886 -77.8 660.923 -30.2545 615.124 64.8394H615.122Z" fill="#414584" fill-opacity="0.55"/>
<path d="M654.937 54.6836C617.638 134.925 624.691 185.232 676.095 205.606C753.201 236.166 936.546 248.39 1013.18 314.684C1089.82 380.976 1323.49 329.727 1363.45 215.949C1403.42 102.17 1475.37 -73.2 1095.95 -73.2C843.002 -73.2 696 -30.573 654.938 54.6836H654.937Z" fill="#323377" fill-opacity="0.49"/>
<path d="M694.752 44.5278C661.756 115.51 667.996 160.013 713.468 178.036C781.678 205.07 943.867 215.884 1011.66 274.528C1079.45 333.171 1286.16 287.836 1321.52 187.185C1356.87 86.535 1420.52 -68.6 1084.88 -68.6C861.117 -68.6 731.077 -30.8915 694.753 44.5278H694.752Z" fill="#23226B" fill-opacity="0.53"/>
</g>
<defs>
<clipPath id="clip0_0_3">
<rect width="1200" height="580" fill="white"/>
</clipPath>
</defs>
</svg>
